<svg width="647" height="335" viewBox="0 0 647 335" fill="none" xmlns="http://www.w3.org/2000/svg">
<path d="M580.5 97.488L570.5 104.988V223.488L566.5 227.488L586 232.488L611.5 229.988L622 215.988L638 204.488L646.5 177.488L641.5 160.988L643 145.488L636 130.988L643 123.988L630 111.488H620.5L598 97.488H580.5Z" fill="#F9B94D"/>
<path d="M570 223.488V120.488L585 116.988L608 129.488L621.5 157.488L619.5 192.488L601 217.988L570 223.488Z" fill="#DCA13D"/>
<path d="M570 223.488V120.488L585 116.988V220.988L570 223.488Z" fill="#C6933D"/>
<path d="M591 226.488L607.5 219.488L598 214.488L587.5 218.988L591 226.488Z" fill="#925902"/>
<path d="M598 214.488L609.5 200.488L625 199.988L607.5 219.488L598 214.488Z" fill="#A16914"/>
<path d="M629.5 174.988L630.5 161.488L615.5 169.488L614 178.488L629.5 174.988Z" fill="#D59234"/>
<path d="M629.5 174.988L614 178.488L611 185.488H627L629.5 174.988Z" fill="#BA7A20"/>
<path d="M625 199.988L627 185.488H611L610 200.488L625 199.988Z" fill="#925902"/>
<path d="M625.5 150.988L610.5 157.988L615.5 169.488L630.5 161.488L625.5 150.988Z" fill="#BA7A20"/>
<path d="M625.5 150.988V137.488L608 146.988L610.5 157.988L625.5 150.988Z" fill="#925902"/>
<path d="M625.5 137.488L616.5 128.988L603 141.988L608 146.988L625.5 137.488Z" fill="#A16914"/>
<path d="M616.5 128.988L607 120.488L594 131.988L603 141.988L616.5 128.988Z" fill="#D59234"/>
<path d="M607 120.488L599 112.988L589 129.988L594 131.988L607 120.488Z" fill="#BA7A20"/>
<path d="M570 120.488V104.988L599 112.988L589 129.988L570 120.488Z" fill="#925902"/>
<path d="M570 223.488L591 226.488L587.5 218.988L570 219.488V223.488Z" fill="#BA7A20"/>
<path d="M77.5 103.488L76 110.988V229.488L70 235.988H54H35L24.5 221.988L8.5 210.488L0 183.488L5 166.988L3.5 151.488L10.5 136.988L3.5 129.988L16.5 117.488H26L48.5 103.488H77.5Z" fill="#F9B94D"/>
<path d="M76.5 229.488V126.488L61.5 122.988L38.5 135.488L25 163.488L27 198.488L45.5 223.988L76.5 229.488Z" fill="#DCA13D"/>
<path d="M33 213.488L62 230.988C62 230.988 52 199.143 52 178.738C52 158.333 62 126.488 62 126.488L35 137.988L26 175.488L33 213.488Z" fill="#C6933D"/>
<path d="M55.5 232.488L39 225.488L48.5 220.488L59 224.988L55.5 232.488Z" fill="#925902"/>
<path d="M48.5 220.488L37 206.488L21.5 205.988L39 225.488L48.5 220.488Z" fill="#A16914"/>
<path d="M17 180.988L16 167.488L31 175.488L32.5 184.488L17 180.988Z" fill="#D59234"/>
<path d="M17 180.988L32.5 184.488L35.5 191.488H19.5L17 180.988Z" fill="#BA7A20"/>
<path d="M21.5 205.988L19.5 191.488H35.5L36.5 206.488L21.5 205.988Z" fill="#925902"/>
<path d="M21 156.988L36 163.988L31 175.488L16 167.488L21 156.988Z" fill="#BA7A20"/>
<path d="M21 156.988V143.488L38.5 152.988L36 163.988L21 156.988Z" fill="#925902"/>
<path d="M21 143.488L30 134.988L43.5 147.988L38.5 152.988L21 143.488Z" fill="#A16914"/>
<path d="M30 134.988L39.5 126.488L52.5 137.988L43.5 147.988L30 134.988Z" fill="#D59234"/>
<path d="M39.5 126.488L47.5 118.988L57.5 135.988L52.5 137.988L39.5 126.488Z" fill="#BA7A20"/>
<path d="M76.5 126.488V110.988L47.5 118.988L57.5 135.988L76.5 126.488Z" fill="#925902"/>
<path d="M76.5 229.488L55.5 232.488L59 224.988L76.5 225.488V229.488Z" fill="#BA7A20"/>
<path d="M92.5 41.488L76.5 24.488L73.5 26.988V99.488L76.5 113.488L83.5 124.488H92.5L95 104.988L92.5 41.488Z" fill="#A7CC44"/>
<path d="M77.5 23.988L67 16.488H64L61 102.988L77.5 106.988L82 85.988L77.5 23.988Z" fill="#DAE7D8"/>
<path d="M53 76.988L56 102.988H63L68 84.488L65.5 15.988H59L53 76.988Z" fill="white"/>
<path d="M569.5 308.988L576.788 318.988L587.288 316.488L593.788 257.988L590.788 234.488L585.5 230.988H569.5L567 245.488L569.5 308.988Z" fill="#A7CC44"/>
<path d="M567 310.488L577.5 317.988H580.5L583.5 231.488L567 227.488L562.5 248.488L567 310.488Z" fill="#DAE7D8"/>
<path d="M590 257.488L587 231.488H580L575 249.988L577.5 318.488H584L590 257.488Z" fill="white"/>
<path d="M246 17.488L241 3.98804L240.5 10.488L244 21.988L246 17.488Z" fill="#A5BC9F"/>
<path d="M80 21.1241L92 34.988L258.5 34.9881L244.5 21.1241L189.638 21.1241L80 21.1241Z" fill="#A7CC44"/>
<path d="M244 21.9881L241.5 11.9881L241 8.98803L65.4999 8.98811L75.4999 21.9881L95.9999 20.9881L244 21.9881Z" fill="#DAE7D8"/>
<path d="M92.7738 0.797967L66.7548 3.62825L66.7091 10.6281L92.7737 12.988L241 9.48804L241 4.48821L92.7738 0.797967Z" fill="white"/>
<path d="M579.703 327.628L574.415 317.128L397.703 321.128L403.703 333.128L476.777 330.992L579.703 327.628Z" fill="#A7CC44"/>
<path d="M396.416 306.128L398.916 316.128L399.416 319.128L574.297 319.128L571.5 308.488L544.416 307.128L396.416 306.128Z" fill="#DAE7D8"/>
<path d="M547.642 327.318L573.661 324.488L573.707 317.488L547.642 315.128L399.416 318.628L399.416 323.628L547.642 327.318Z" fill="white"/>
<path d="M569.5 310.488L573.5 324.488L574.5 318.988L571.5 308.488L569.5 310.488Z" fill="#A5BC9F"/>
<path d="M469 19.988L470.584 6.98804L467.084 12.3478L464.5 21.488L469 19.988Z" fill="#A5BC9F"/>
<path d="M248.5 20.9839L264.5 36.9881L443.5 39.4881L477 34.8478L467 20.9839L368.223 20.9839L248.5 20.9839Z" fill="#A7CC44"/>
<path d="M467 20.8478L468 12.488L419.584 8.84776L246 8.84776L248 21.988L274.584 20.8478L467 20.8478Z" fill="#DAE7D8"/>
<path d="M271.358 0.657726L245.339 3.48801L245.293 10.4879L271.358 12.8478L441.5 15.988L468 12.488L470.5 6.98804L441.5 0.657797L354.5 0.657791L271.358 0.657726Z" fill="white"/>
<path d="M400.288 330.992L393.788 319.988L204.5 312.488L176.788 319.988L181 330.992L279.777 330.992L400.288 330.992Z" fill="#A7CC44"/>
<path d="M175 306.128L174 314.488L222.416 318.128L396 318.128L395.288 306.488L367.416 306.128L175 306.128Z" fill="#DAE7D8"/>
<path d="M370.642 326.318L396.661 323.488L396.706 316.488L370.642 314.128L200.5 310.988L174 314.488L171.5 319.988L200.5 326.318L287.5 326.318L370.642 326.318Z" fill="white"/>
<path d="M393.288 306.488L394.288 323.988L396.288 323.488L395.288 306.488H393.288Z" fill="#A5BC9F"/>
<path d="M473 21.988L478 35.988L563.14 39.4881L570.5 20.5189L563.14 20.143L523.964 20.5189L473 21.988Z" fill="#A7CC44"/>
<path d="M580.55 23.1271L581.822 13.2593L558.073 10.2767L472 10.8477L472.948 23.9811L486.134 22.7535L580.55 23.1271Z" fill="#DAE7D8"/>
<path d="M484.993 0.570569L472.339 3.48806L472.294 10.4879L484.952 12.7604L567.627 15.3298L580.759 12.0991L581.995 5.73112L567.679 -3.25386e-05L525.398 0.291768L484.993 0.570569Z" fill="white"/>
<path d="M570.5 105.488L583.5 97.488L578.511 80.1727L577.643 16.5126L564.513 17.223L565.786 26.9746L570.5 105.488Z" fill="#DAE7D8"/>
<path d="M587.965 26.0894L585.003 16.8344L578.003 16.8054L575.775 26.0671L573.494 86.5472L576.77 96.1515L583.143 97.0519L588.824 86.5752L588.384 55.6465L587.965 26.0894Z" fill="white"/>
<path d="M76 229.488L64 235.488L68.701 252.803L69.5696 316.463L82.6996 315.753L81.4264 306.001L76 229.488Z" fill="#DAE7D8"/>
<path d="M59.2474 306.887L62.209 316.142L69.209 316.171L71.4372 306.909L69 247.488L69.2089 232.488L58.3882 235.988L58.3882 246.401L58.8276 277.33L59.2474 306.887Z" fill="white"/>
<path d="M92 239.488L76.5 225.488L73 231.988L78 309.488H96L92 239.488Z" fill="#A7CC44"/>
<path d="M177 327.988L170.212 314.988L85.072 311.488L65.4999 322.488L85.072 330.833L124.248 330.457L177 327.988Z" fill="#A7CC44"/>
<path d="M72.5001 304.223L68.5 313.988L90.1392 316.699L176.212 316.128L177.5 305.988L162.078 304.223L72.5001 304.223Z" fill="#DAE7D8"/>
<path d="M163.219 326.406L175.873 323.488L175.919 316.488L163.26 314.216L80.585 311.646L67.453 314.877L66.2167 321.245L80.5336 326.976L122.814 326.684L163.219 326.406Z" fill="white"/>
<path d="M176.5 306.488L174.5 323.988L176.5 322.988L177.5 305.988L176.5 306.488Z" fill="#A5BC9F"/>
</svg>
