<svg width="444" height="100" viewBox="0 0 444 100" fill="none" xmlns="http://www.w3.org/2000/svg">
<g filter="url(#filter0_d_6_84)">
<path d="M433.743 24.5L410.243 7.5L386.743 35.5L419.243 57L393.743 64.5L411.243 87L441.243 57L411.243 35.5L433.743 24.5Z" fill="#FFD167"/>
<path d="M433.743 24.5L410.243 7.5L386.743 35.5L419.243 57L393.743 64.5L411.243 87L441.243 57L411.243 35.5L433.743 24.5Z" stroke="#F9C057" stroke-width="3" stroke-miterlimit="16"/>
</g>
<g filter="url(#filter1_d_6_84)">
<path d="M392.743 83L348.743 68.5L340.743 17.5L381.743 16.5L392.743 83ZM358.743 53L374.743 56.5L372.243 33.5L356.743 31.5L358.743 53Z" fill="#FFD167"/>
<path d="M392.743 83L392.273 84.4246L394.627 85.2003L394.223 82.7552L392.743 83ZM348.743 68.5L347.261 68.7325L347.403 69.6378L348.273 69.9246L348.743 68.5ZM340.743 17.5L340.706 16.0004L338.996 16.0422L339.261 17.7325L340.743 17.5ZM381.743 16.5L383.223 16.2552L383.01 14.9686L381.706 15.0004L381.743 16.5ZM358.743 53L357.249 53.1389L357.351 54.231L358.422 54.4654L358.743 53ZM374.743 56.5L374.422 57.9654L376.459 58.411L376.234 56.3379L374.743 56.5ZM372.243 33.5L373.734 33.3379L373.606 32.1635L372.435 32.0123L372.243 33.5ZM356.743 31.5L356.935 30.0123L355.076 29.7724L355.249 31.6389L356.743 31.5ZM392.743 83L393.212 81.5754L349.212 67.0754L348.743 68.5L348.273 69.9246L392.273 84.4246L392.743 83ZM348.743 68.5L350.225 68.2675L342.225 17.2675L340.743 17.5L339.261 17.7325L347.261 68.7325L348.743 68.5ZM340.743 17.5L340.779 18.9996L381.779 17.9996L381.743 16.5L381.706 15.0004L340.706 16.0004L340.743 17.5ZM381.743 16.5L380.263 16.7448L391.263 83.2448L392.743 83L394.223 82.7552L383.223 16.2552L381.743 16.5ZM358.743 53L358.422 54.4654L374.422 57.9654L374.743 56.5L375.063 55.0346L359.063 51.5346L358.743 53ZM374.743 56.5L376.234 56.3379L373.734 33.3379L372.243 33.5L370.752 33.6621L373.252 56.6621L374.743 56.5ZM372.243 33.5L372.435 32.0123L356.935 30.0123L356.743 31.5L356.551 32.9877L372.051 34.9877L372.243 33.5ZM356.743 31.5L355.249 31.6389L357.249 53.1389L358.743 53L360.236 52.8611L358.236 31.3611L356.743 31.5Z" fill="#F9C057"/>
</g>
<g filter="url(#filter2_d_6_84)">
<path d="M305.743 6.5L289.243 7.5L298.243 85L348.743 79L344.243 58.5L313.743 65.5L305.743 6.5Z" fill="#FFD167"/>
<path d="M305.743 6.5L289.243 7.5L298.243 85L348.743 79L344.243 58.5L313.743 65.5L305.743 6.5Z" stroke="#F9C057" stroke-width="3" stroke-miterlimit="16"/>
</g>
<g filter="url(#filter3_d_6_84)">
<path d="M248.243 8.5L232.243 11.5L238.243 75.5H281.243L286.743 10L267.243 8.5L266.243 54.5H252.743L248.243 8.5Z" fill="#FFD167"/>
<path d="M248.243 8.5L232.243 11.5L238.243 75.5H281.243L286.743 10L267.243 8.5L266.243 54.5H252.743L248.243 8.5Z" stroke="#F9C057" stroke-width="3" stroke-miterlimit="16"/>
</g>
<g filter="url(#filter4_d_6_84)">
<path d="M227.222 2.75293L231.222 26.7529L231.385 27.7295L230.551 28.2637L220.528 34.6777L231.792 39.1035L232.714 39.4658L232.742 40.4561L233.742 74.4561L233.784 75.8691L232.375 75.9941L175.875 80.9941L174.086 81.1523L174.249 79.3633L181.249 2.86328L181.374 1.5H227.013L227.222 2.75293ZM197.243 65L215.743 63.5L217.243 47.5L198.743 43L197.243 65ZM199.743 14L198.743 28.5L214.743 22.5V11.5L199.743 14Z" fill="#FFD167"/>
<path d="M227.222 2.75293L228.702 2.50633L228.702 2.50614L227.222 2.75293ZM231.222 26.7529L229.743 26.9995L229.743 27L231.222 26.7529ZM231.385 27.7295L232.194 28.9926L233.028 28.4587L232.865 27.4824L231.385 27.7295ZM230.551 28.2637L231.36 29.5271L231.36 29.5268L230.551 28.2637ZM220.528 34.6777L219.72 33.4143L217.243 34.9988L219.979 36.0738L220.528 34.6777ZM231.792 39.1035L232.34 37.7075L232.34 37.7074L231.792 39.1035ZM232.714 39.4658L234.213 39.4229L234.185 38.4323L233.262 38.0698L232.714 39.4658ZM232.742 40.4561L231.242 40.4989L231.243 40.5002L232.742 40.4561ZM233.742 74.4561L232.243 74.5002L232.243 74.5006L233.742 74.4561ZM233.784 75.8691L233.916 77.3633L235.325 77.2383L235.283 75.8246L233.784 75.8691ZM232.375 75.9941L232.507 77.4883L232.507 77.4883L232.375 75.9941ZM175.875 80.9941L176.007 82.4883L176.007 82.4883L175.875 80.9941ZM174.086 81.1523L172.592 81.0162L172.429 82.8047L174.218 82.6465L174.086 81.1523ZM174.249 79.3633L172.755 79.2266L172.755 79.2271L174.249 79.3633ZM181.249 2.86328L179.755 2.72632L179.755 2.7266L181.249 2.86328ZM181.374 1.5V0H180.005L179.88 1.36304L181.374 1.5ZM227.013 1.5L228.493 1.25321L228.284 0H227.013V1.5ZM197.243 65L195.746 64.898L195.628 66.6359L197.364 66.4951L197.243 65ZM215.743 63.5L215.864 64.9951L217.119 64.8934L217.236 63.64L215.743 63.5ZM217.243 47.5L218.736 47.64L218.857 46.349L217.597 46.0425L217.243 47.5ZM198.743 43L199.097 41.5425L197.367 41.1217L197.246 42.898L198.743 43ZM199.743 14L199.496 12.5204L198.328 12.7151L198.246 13.8968L199.743 14ZM198.743 28.5L197.246 28.3968L197.086 30.7233L199.27 29.9045L198.743 28.5ZM214.743 22.5L215.27 23.9045L216.243 23.5395V22.5H214.743ZM214.743 11.5H216.243V9.72931L214.496 10.0204L214.743 11.5ZM227.222 2.75293L225.743 2.99953L229.743 26.9995L231.222 26.7529L232.702 26.5063L228.702 2.50633L227.222 2.75293ZM231.222 26.7529L229.743 27L229.906 27.9766L231.385 27.7295L232.865 27.4824L232.702 26.5059L231.222 26.7529ZM231.385 27.7295L230.576 26.4664L229.742 27.0006L230.551 28.2637L231.36 29.5268L232.194 28.9926L231.385 27.7295ZM230.551 28.2637L229.743 27.0002L219.72 33.4143L220.528 34.6777L221.337 35.9412L231.36 29.5271L230.551 28.2637ZM220.528 34.6777L219.979 36.0738L231.243 40.4996L231.792 39.1035L232.34 37.7074L221.077 33.2816L220.528 34.6777ZM231.792 39.1035L231.243 40.4996L232.165 40.8619L232.714 39.4658L233.262 38.0698L232.34 37.7075L231.792 39.1035ZM232.714 39.4658L231.214 39.5087L231.242 40.4989L232.742 40.4561L234.241 40.4132L234.213 39.4229L232.714 39.4658ZM232.742 40.4561L231.243 40.5002L232.243 74.5002L233.742 74.4561L235.241 74.412L234.241 40.412L232.742 40.4561ZM233.742 74.4561L232.243 74.5006L232.285 75.9137L233.784 75.8691L235.283 75.8246L235.241 74.4115L233.742 74.4561ZM233.784 75.8691L233.651 74.375L232.242 74.5L232.375 75.9941L232.507 77.4883L233.916 77.3633L233.784 75.8691ZM232.375 75.9941L232.242 74.5L175.742 79.5L175.875 80.9941L176.007 82.4883L232.507 77.4883L232.375 75.9941ZM175.875 80.9941L175.743 79.5L173.954 79.6582L174.086 81.1523L174.218 82.6465L176.007 82.4883L175.875 80.9941ZM174.086 81.1523L175.579 81.2885L175.743 79.4995L174.249 79.3633L172.755 79.2271L172.592 81.0162L174.086 81.1523ZM174.249 79.3633L175.742 79.5L182.742 2.99997L181.249 2.86328L179.755 2.7266L172.755 79.2266L174.249 79.3633ZM181.249 2.86328L182.742 3.00024L182.867 1.63696L181.374 1.5L179.88 1.36304L179.755 2.72632L181.249 2.86328ZM181.374 1.5V3H227.013V1.5V0H181.374V1.5ZM227.013 1.5L225.534 1.74679L225.743 2.99972L227.222 2.75293L228.702 2.50614L228.493 1.25321L227.013 1.5ZM197.243 65L197.364 66.4951L215.864 64.9951L215.743 63.5L215.622 62.0049L197.122 63.5049L197.243 65ZM215.743 63.5L217.236 63.64L218.736 47.64L217.243 47.5L215.749 47.36L214.249 63.36L215.743 63.5ZM217.243 47.5L217.597 46.0425L199.097 41.5425L198.743 43L198.388 44.4575L216.888 48.9575L217.243 47.5ZM198.743 43L197.246 42.898L195.746 64.898L197.243 65L198.739 65.102L200.239 43.102L198.743 43ZM199.743 14L198.246 13.8968L197.246 28.3968L198.743 28.5L200.239 28.6032L201.239 14.1032L199.743 14ZM198.743 28.5L199.27 29.9045L215.27 23.9045L214.743 22.5L214.216 21.0955L198.216 27.0955L198.743 28.5ZM214.743 22.5H216.243V11.5H214.743H213.243V22.5H214.743ZM214.743 11.5L214.496 10.0204L199.496 12.5204L199.743 14L199.989 15.4796L214.989 12.9796L214.743 11.5Z" fill="#F9C057"/>
</g>
<g filter="url(#filter5_d_6_84)">
<path d="M179.743 11L171.243 76.5L130.743 61.5L138.743 11H179.743ZM145.743 48L161.743 51L165.243 26.5L149.243 24.5L145.743 48Z" fill="#FFD167"/>
<path d="M179.743 11L181.23 11.193L181.45 9.5H179.743V11ZM171.243 76.5L170.722 77.9066L172.488 78.5607L172.73 76.693L171.243 76.5ZM130.743 61.5L129.261 61.2653L129.069 62.4796L130.222 62.9066L130.743 61.5ZM138.743 11V9.5H137.462L137.261 10.7653L138.743 11ZM145.743 48L144.259 47.779L144.046 49.2081L145.466 49.4743L145.743 48ZM161.743 51L161.466 52.4743L163.006 52.763L163.228 51.2121L161.743 51ZM165.243 26.5L166.728 26.7121L166.944 25.2009L165.429 25.0116L165.243 26.5ZM149.243 24.5L149.429 23.0116L147.975 22.8299L147.759 24.279L149.243 24.5ZM179.743 11L178.255 10.807L169.755 76.307L171.243 76.5L172.73 76.693L181.23 11.193L179.743 11ZM171.243 76.5L171.764 75.0934L131.264 60.0934L130.743 61.5L130.222 62.9066L170.722 77.9066L171.243 76.5ZM130.743 61.5L132.224 61.7347L140.224 11.2347L138.743 11L137.261 10.7653L129.261 61.2653L130.743 61.5ZM138.743 11V12.5H179.743V11V9.5H138.743V11ZM145.743 48L145.466 49.4743L161.466 52.4743L161.743 51L162.019 49.5257L146.019 46.5257L145.743 48ZM161.743 51L163.228 51.2121L166.728 26.7121L165.243 26.5L163.758 26.2879L160.258 50.7879L161.743 51ZM165.243 26.5L165.429 25.0116L149.429 23.0116L149.243 24.5L149.057 25.9884L165.057 27.9884L165.243 26.5ZM149.243 24.5L147.759 24.279L144.259 47.779L145.743 48L147.226 48.221L150.726 24.721L149.243 24.5Z" fill="#F9C057"/>
</g>
<g filter="url(#filter6_d_6_84)">
<path d="M74.7429 78L90.2429 2H107.243L97.7429 56.5L129.743 52.5L128.243 71.5L74.7429 78Z" fill="#FFD068"/>
<path d="M74.7429 78L90.2429 2H107.243L97.7429 56.5L129.743 52.5L128.243 71.5L74.7429 78Z" stroke="#F9C057" stroke-width="3" stroke-miterlimit="16"/>
</g>
<g filter="url(#filter7_d_6_84)">
<path d="M31.7429 3.5H85.7429L77.2429 20L39.2429 19L24.7429 49.5L52.2429 53L53.7429 42L38.2429 41.5L42.7429 28.5L69.7429 31.5L68.2429 74L2.24286 64L31.7429 3.5Z" fill="#FFD068"/>
<path d="M31.7429 3.5H85.7429L77.2429 20L39.2429 19L24.7429 49.5L52.2429 53L53.7429 42L38.2429 41.5L42.7429 28.5L69.7429 31.5L68.2429 74L2.24286 64L31.7429 3.5Z" stroke="#F9C057" stroke-width="3" stroke-miterlimit="16"/>
</g>
<defs>
<filter id="filter0_d_6_84" x="384.513" y="5.46658" width="59.0405" height="93.7956" filterUnits="userSpaceOnUse" color-interpolation-filters="sRGB">
<feFlood flood-opacity="0" result="BackgroundImageFix"/>
<feColorMatrix in="SourceAlpha" type="matrix" values="0 0 0 0 0 0 0 0 0 0 0 0 0 0 0 0 0 0 127 0" result="hardAlpha"/>
<feOffset dy="10"/>
<feComposite in2="hardAlpha" operator="out"/>
<feColorMatrix type="matrix" values="0 0 0 0 0.72549 0 0 0 0 0.494118 0 0 0 0 0.133333 0 0 0 1 0"/>
<feBlend mode="normal" in2="BackgroundImageFix" result="effect1_dropShadow_6_84"/>
<feBlend mode="normal" in="SourceGraphic" in2="effect1_dropShadow_6_84" result="shape"/>
</filter>
<filter id="filter1_d_6_84" x="338.996" y="14.9687" width="55.6313" height="80.2317" filterUnits="userSpaceOnUse" color-interpolation-filters="sRGB">
<feFlood flood-opacity="0" result="BackgroundImageFix"/>
<feColorMatrix in="SourceAlpha" type="matrix" values="0 0 0 0 0 0 0 0 0 0 0 0 0 0 0 0 0 0 127 0" result="hardAlpha"/>
<feOffset dy="10"/>
<feComposite in2="hardAlpha" operator="out"/>
<feColorMatrix type="matrix" values="0 0 0 0 0.72549 0 0 0 0 0.494118 0 0 0 0 0.133333 0 0 0 1 0"/>
<feBlend mode="normal" in2="BackgroundImageFix" result="effect1_dropShadow_6_84"/>
<feBlend mode="normal" in="SourceGraphic" in2="effect1_dropShadow_6_84" result="shape"/>
</filter>
<filter id="filter2_d_6_84" x="287.57" y="4.91852" width="62.9926" height="91.7484" filterUnits="userSpaceOnUse" color-interpolation-filters="sRGB">
<feFlood flood-opacity="0" result="BackgroundImageFix"/>
<feColorMatrix in="SourceAlpha" type="matrix" values="0 0 0 0 0 0 0 0 0 0 0 0 0 0 0 0 0 0 127 0" result="hardAlpha"/>
<feOffset dy="10"/>
<feComposite in2="hardAlpha" operator="out"/>
<feColorMatrix type="matrix" values="0 0 0 0 0.72549 0 0 0 0 0.494118 0 0 0 0 0.133333 0 0 0 1 0"/>
<feBlend mode="normal" in2="BackgroundImageFix" result="effect1_dropShadow_6_84"/>
<feBlend mode="normal" in="SourceGraphic" in2="effect1_dropShadow_6_84" result="shape"/>
</filter>
<filter id="filter3_d_6_84" x="230.622" y="6.72385" width="57.7423" height="80.2762" filterUnits="userSpaceOnUse" color-interpolation-filters="sRGB">
<feFlood flood-opacity="0" result="BackgroundImageFix"/>
<feColorMatrix in="SourceAlpha" type="matrix" values="0 0 0 0 0 0 0 0 0 0 0 0 0 0 0 0 0 0 127 0" result="hardAlpha"/>
<feOffset dy="10"/>
<feComposite in2="hardAlpha" operator="out"/>
<feColorMatrix type="matrix" values="0 0 0 0 0.72549 0 0 0 0 0.494118 0 0 0 0 0.133333 0 0 0 1 0"/>
<feBlend mode="normal" in2="BackgroundImageFix" result="effect1_dropShadow_6_84"/>
<feBlend mode="normal" in="SourceGraphic" in2="effect1_dropShadow_6_84" result="shape"/>
</filter>
<filter id="filter4_d_6_84" x="172.429" y="0" width="62.8964" height="92.8047" filterUnits="userSpaceOnUse" color-interpolation-filters="sRGB">
<feFlood flood-opacity="0" result="BackgroundImageFix"/>
<feColorMatrix in="SourceAlpha" type="matrix" values="0 0 0 0 0 0 0 0 0 0 0 0 0 0 0 0 0 0 127 0" result="hardAlpha"/>
<feOffset dy="10"/>
<feComposite in2="hardAlpha" operator="out"/>
<feColorMatrix type="matrix" values="0 0 0 0 0.72549 0 0 0 0 0.494118 0 0 0 0 0.133333 0 0 0 1 0"/>
<feBlend mode="normal" in2="BackgroundImageFix" result="effect1_dropShadow_6_84"/>
<feBlend mode="normal" in="SourceGraphic" in2="effect1_dropShadow_6_84" result="shape"/>
</filter>
<filter id="filter5_d_6_84" x="129.069" y="9.5" width="52.3811" height="79.0607" filterUnits="userSpaceOnUse" color-interpolation-filters="sRGB">
<feFlood flood-opacity="0" result="BackgroundImageFix"/>
<feColorMatrix in="SourceAlpha" type="matrix" values="0 0 0 0 0 0 0 0 0 0 0 0 0 0 0 0 0 0 127 0" result="hardAlpha"/>
<feOffset dy="10"/>
<feComposite in2="hardAlpha" operator="out"/>
<feColorMatrix type="matrix" values="0 0 0 0 0.72549 0 0 0 0 0.494118 0 0 0 0 0.133333 0 0 0 1 0"/>
<feBlend mode="normal" in2="BackgroundImageFix" result="effect1_dropShadow_6_84"/>
<feBlend mode="normal" in="SourceGraphic" in2="effect1_dropShadow_6_84" result="shape"/>
</filter>
<filter id="filter6_d_6_84" x="72.8571" y="0.5" width="58.526" height="89.2401" filterUnits="userSpaceOnUse" color-interpolation-filters="sRGB">
<feFlood flood-opacity="0" result="BackgroundImageFix"/>
<feColorMatrix in="SourceAlpha" type="matrix" values="0 0 0 0 0 0 0 0 0 0 0 0 0 0 0 0 0 0 127 0" result="hardAlpha"/>
<feOffset dy="10"/>
<feComposite in2="hardAlpha" operator="out"/>
<feColorMatrix type="matrix" values="0 0 0 0 0.72549 0 0 0 0 0.494118 0 0 0 0 0.133333 0 0 0 1 0"/>
<feBlend mode="normal" in2="BackgroundImageFix" result="effect1_dropShadow_6_84"/>
<feBlend mode="normal" in="SourceGraphic" in2="effect1_dropShadow_6_84" result="shape"/>
</filter>
<filter id="filter7_d_6_84" x="0" y="2" width="88.2029" height="83.7353" filterUnits="userSpaceOnUse" color-interpolation-filters="sRGB">
<feFlood flood-opacity="0" result="BackgroundImageFix"/>
<feColorMatrix in="SourceAlpha" type="matrix" values="0 0 0 0 0 0 0 0 0 0 0 0 0 0 0 0 0 0 127 0" result="hardAlpha"/>
<feOffset dy="10"/>
<feComposite in2="hardAlpha" operator="out"/>
<feColorMatrix type="matrix" values="0 0 0 0 0.72549 0 0 0 0 0.494118 0 0 0 0 0.133333 0 0 0 1 0"/>
<feBlend mode="normal" in2="BackgroundImageFix" result="effect1_dropShadow_6_84"/>
<feBlend mode="normal" in="SourceGraphic" in2="effect1_dropShadow_6_84" result="shape"/>
</filter>
</defs>
</svg>
